<svg width="100%" viewBox="0 0 24 24" fill="none" xmlns="http://www.w3.org/2000/svg" id="document_icon">
    <rect width="24" height="24" rx="4" fill="#BAAC93"/>
    <mask id="mask0_13913_5694" style="mask-type:luminance" maskUnits="userSpaceOnUse" x="0" y="0" width="24" height="24">
        <rect width="24" height="24" rx="4" fill="white"/>
    </mask>
    <g mask="url(#mask0_13913_5694)">
        <path d="M18.5167 9.73333H14.55C13.615 9.73333 12.85 8.96833 12.85 8.03333V4.06667C12.85 3.755 12.595 3.5 12.2833 3.5H6.61666C5.68166 3.5 4.91666 4.265 4.91666 5.2V18.8C4.91666 19.735 5.68166 20.5 6.61666 20.5H17.3833C18.3183 20.5 19.0833 19.735 19.0833 18.8V10.3C19.0833 9.98833 18.8283 9.73333 18.5167 9.73333Z" fill="white"/>
        <path d="M18.97 7.35333L15.23 3.61333C15.145 3.52833 15.06 3.5 14.9467 3.5C14.72 3.5 14.55 3.67 14.55 3.89667V6.9C14.55 7.52333 15.06 8.03333 15.6833 8.03333H18.6867C18.9133 8.03333 19.0833 7.86333 19.0833 7.63667C19.0833 7.52333 19.055 7.43833 18.97 7.35333Z" fill="white"/>
    </g>
</svg>
