<svg width="100%" viewBox="0 0 32 32" fill="none" xmlns="http://www.w3.org/2000/svg" id="pfa_icon">
    <rect width="32" height="32" rx="4" fill="#0EB58A"/>
    <mask id="mask0_6741_17364" style="mask-type:luminance" maskUnits="userSpaceOnUse" x="0" y="0" width="32" height="32">
        <rect width="32" height="32" rx="4" fill="white"/>
    </mask>
    <g mask="url(#mask0_6741_17364)">
        <path d="M9.56581 21.7032L6.60452 24.8107C6.49484 24.9204 6.31204 24.8473 6.31204 24.701V23.2387C6.31204 23.0924 6.16581 22.9096 6.01957 22.9096H5.47118C5.32495 22.9096 5.17871 23.0924 5.17871 23.2387V26.7118C5.17871 26.8946 5.25183 26.9677 5.43462 26.9677H8.90774C9.05398 26.9677 9.20022 26.8946 9.20022 26.7118V26.1634C9.20022 26.0172 9.09054 25.8709 8.90774 25.8709H7.44538C7.26258 25.8709 7.18946 25.6881 7.3357 25.5785L11.1379 21.5935C11.0282 21.5935 10.9185 21.5935 10.8088 21.5935C10.4067 21.5935 9.96796 21.6301 9.56581 21.7032Z" fill="white"/>
        <path d="M24.9942 25.5786C25.1039 25.6883 25.0308 25.8711 24.848 25.8711H23.3856C23.2394 25.8711 23.0931 26.0173 23.0931 26.1636V26.7119C23.0931 26.8582 23.2759 27.0044 23.3856 27.0044H26.8587C27.0415 27.0044 27.1146 26.9313 27.1146 26.7485V23.2754C27.1146 23.1291 27.0415 22.9829 26.8953 22.9829H26.3469C26.2007 22.9829 26.0179 23.0926 26.0179 23.2754V24.7377C26.0179 24.884 25.8351 24.9937 25.7254 24.8474L24.0071 23.3119C23.5684 23.4216 23.1662 23.5313 22.7275 23.6044L24.9942 25.5786Z" fill="white"/>
        <path fill-rule="evenodd" clip-rule="evenodd" d="M16.0623 11.8519C18.457 12.5996 20.8102 13.3344 23.4218 12.5268C24.2261 12.2709 25.0304 12.8924 25.067 13.6602V19.9849C25.067 20.5333 24.7014 20.9354 24.2992 21.1182C21.3662 22.3403 18.7813 21.5416 16.1417 20.7259C13.6486 19.9556 11.1067 19.1701 8.17666 20.058C7.37236 20.2774 6.67773 19.7655 6.67773 18.9247V12.6C6.67773 12.0516 6.89709 11.6494 7.37236 11.4666C10.6084 10.149 13.3617 11.0087 16.0623 11.8519ZM13.6605 16.0731C13.6605 17.3892 14.7207 18.4494 16.0369 18.4494C17.353 18.4494 18.4132 17.3892 18.4132 16.0731C18.4132 14.7569 17.353 13.6967 16.0369 13.6967C14.7207 13.6967 13.6605 14.7569 13.6605 16.0731Z" fill="white"/>
        <path d="M15.964 7.44524C15.964 7.26244 15.7812 7.22588 15.6715 7.33556L14.6479 8.35921C14.5382 8.46889 14.3188 8.43233 14.2092 8.35921L13.8436 7.95706C13.7339 7.84739 13.7704 7.70115 13.8801 7.59147L16.3661 5.10545C16.4758 4.99577 16.5855 4.99577 16.7317 5.10545L19.1812 7.55491C19.2909 7.66459 19.3274 7.84739 19.2178 7.95706L18.8522 8.32266C18.7425 8.43233 18.5231 8.39577 18.4135 8.32266L17.3898 7.299C17.2801 7.18932 17.0973 7.26244 17.0973 7.40868V10.0775C16.7317 9.96782 16.3661 9.85814 16.0006 9.74846L15.964 7.44524Z" fill="white"/>
    </g>
</svg>
