<svg width="100%" viewBox="0 0 24 24" fill="none" xmlns="http://www.w3.org/2000/svg" id="pfc_icon">
    <rect width="24" height="24" fill="#F3F3F3"/>
    <rect width="24" height="24" rx="4" fill="#0EB58A"/>
    <mask id="mask0_8698_34374" style="mask-type:luminance" maskUnits="userSpaceOnUse" x="0" y="0" width="24"
          height="24">
        <rect width="24" height="24" rx="4" fill="white"/>
    </mask>
    <g mask="url(#mask0_8698_34374)">
        <path d="M14.125 7.46667H16.7883C16.9866 7.46667 17.1566 7.29667 17.1566 7.09833C17.1566 7.01333 17.1283 6.92833 17.0716 6.84333L13.7283 3.585C13.6433 3.52833 13.5583 3.5 13.4733 3.5C13.275 3.5 13.105 3.67 13.105 3.86833V6.475C13.1333 7.01333 13.5866 7.46667 14.125 7.46667Z"
              fill="white"/>
        <path d="M9.0533 16.25C9.0533 15.2583 9.61997 14.38 10.5266 14.04C11.2633 13.7567 12 13.5867 12.7933 13.5867C13.9266 13.5867 14.89 13.8983 15.7683 14.1533C16.25 14.295 16.7033 14.4367 17.1283 14.5217L17.185 9.42167C17.185 9.16667 16.9583 8.94 16.7033 8.94H13.1333C12.2833 8.94 11.66 8.26 11.66 7.46667V3.98167C11.66 3.72667 11.4333 3.5 11.15 3.5H6.10663C5.28497 3.5 4.6333 4.18 4.6333 4.97333V16.8733C4.6333 17.695 5.3133 18.3467 6.10663 18.3467H9.0533V16.25Z"
              fill="white"/>
        <path fill-rule="evenodd" clip-rule="evenodd"
              d="M15.2184 15.9092C16.3269 16.2541 17.4191 16.594 18.63 16.2214C18.9984 16.1364 19.3667 16.3914 19.3667 16.7598V19.6781C19.3667 19.9048 19.1967 20.1031 18.9984 20.1881C17.6442 20.756 16.4546 20.3884 15.2373 20.0123C14.0861 19.6566 12.9101 19.2933 11.5467 19.7064C11.2067 19.8198 10.8667 19.5931 10.8667 19.1964V16.2498C10.8667 16.0231 10.98 15.8248 11.2067 15.7398C12.6943 15.1237 13.9667 15.5197 15.2184 15.9092ZM14.0967 17.8648C14.0967 18.4881 14.6067 18.9698 15.2017 18.9698C15.825 18.9698 16.3067 18.4881 16.3067 17.8648C16.3067 17.2414 15.825 16.7598 15.2017 16.7598C14.5784 16.7598 14.0967 17.2698 14.0967 17.8648Z"
              fill="white"/>
    </g>
</svg>
