<svg width="100%" viewBox="0 0 24 24" fill="none" xmlns="http://www.w3.org/2000/svg" id="record_icon">
<rect width="24" height="24" fill="#F3F3F3"/>
<rect width="24" height="24" rx="4" fill="#7DC37D"/>
<mask id="mask0_8347_45875" style="mask-type:luminance" maskUnits="userSpaceOnUse" x="0" y="0" width="24" height="24">
<rect width="24" height="24" rx="4" fill="white"/>
</mask>
<g mask="url(#mask0_8347_45875)">
<path d="M8.88356 6.9H15.1169C15.4286 6.9 15.6836 6.645 15.6836 6.33333V5.2C15.6836 4.265 14.9186 3.5 13.9836 3.5H10.0169C9.08189 3.5 8.31689 4.265 8.31689 5.2V6.33333C8.31689 6.645 8.57189 6.9 8.88356 6.9Z" fill="white"/>
<path fill-rule="evenodd" clip-rule="evenodd" d="M18.2336 4.91667H17.6669C17.4969 4.91667 17.3836 5.03001 17.3836 5.20001V6.33334C17.3836 7.58001 16.3636 8.60001 15.1169 8.60001H8.88356C7.63689 8.60001 6.61689 7.58001 6.61689 6.33334V5.20001C6.61689 5.03001 6.50356 4.91667 6.33356 4.91667H5.76689C4.83189 4.91667 4.06689 5.68167 4.06689 6.61667V18.8C4.06689 19.735 4.83189 20.5 5.76689 20.5H18.2336C19.1686 20.5 19.9336 19.735 19.9336 18.8V6.61667C19.9336 5.68167 19.1686 4.91667 18.2336 4.91667ZM8.88356 17.1C8.88356 17.4117 8.62856 17.6667 8.31689 17.6667H7.75023C7.43856 17.6667 7.18356 17.4117 7.18356 17.1V16.5333C7.18356 16.2217 7.43856 15.9667 7.75023 15.9667H8.31689C8.62856 15.9667 8.88356 16.2217 8.88356 16.5333V17.1ZM8.31689 14.8333C8.62856 14.8333 8.88356 14.5783 8.88356 14.2667V13.7C8.88356 13.3883 8.62856 13.1333 8.31689 13.1333H7.75023C7.43856 13.1333 7.18356 13.3883 7.18356 13.7V14.2667C7.18356 14.5783 7.43856 14.8333 7.75023 14.8333H8.31689ZM8.88356 11.4333C8.88356 11.745 8.62856 12 8.31689 12H7.75023C7.43856 12 7.18356 11.745 7.18356 11.4333V10.8667C7.18356 10.555 7.43856 10.3 7.75023 10.3H8.31689C8.62856 10.3 8.88356 10.555 8.88356 10.8667V11.4333ZM16.2502 17.6667C16.5619 17.6667 16.8169 17.4117 16.8169 17.1V16.5333C16.8169 16.2217 16.5619 15.9667 16.2502 15.9667H10.5836C10.2719 15.9667 10.0169 16.2217 10.0169 16.5333V17.1C10.0169 17.4117 10.2719 17.6667 10.5836 17.6667H16.2502ZM16.8169 14.2667C16.8169 14.5783 16.5619 14.8333 16.2502 14.8333H10.5836C10.2719 14.8333 10.0169 14.5783 10.0169 14.2667V13.7C10.0169 13.3883 10.2719 13.1333 10.5836 13.1333H16.2502C16.5619 13.1333 16.8169 13.3883 16.8169 13.7V14.2667ZM16.2502 12C16.5619 12 16.8169 11.745 16.8169 11.4333V10.8667C16.8169 10.555 16.5619 10.3 16.2502 10.3H10.5836C10.2719 10.3 10.0169 10.555 10.0169 10.8667V11.4333C10.0169 11.745 10.2719 12 10.5836 12H16.2502Z" fill="white"/>
</g>
</svg>
